# Blender v3.1.2 OBJ File: 'steve.blend'
# www.blender.org
mtllib steve.mtl
o Steve_RArm
v -0.548908 3.468683 2.237525
v -0.560913 3.465166 1.101346
v 0.482139 3.452592 1.090364
v 0.494144 3.456110 2.226542
v -0.512911 6.463160 2.227874
v -0.524916 6.459643 1.091696
v 0.530140 6.450586 2.216893
v 0.518135 6.447069 1.080714
vt 0.781208 0.687800
vt 0.781242 0.750079
vt 0.734413 0.749971
vt 0.734608 0.687489
vt 0.843866 0.500114
vt 0.843441 0.687489
vt 0.796372 0.687375
vt 0.796324 0.499999
vt 0.640152 0.687375
vt 0.640104 0.499999
vt 0.687646 0.500114
vt 0.687221 0.687489
vt 0.735033 0.500114
vt 0.734608 0.687489
vt 0.687539 0.687375
vt 0.687491 0.499999
vt 0.735033 0.500114
vt 0.734608 0.687489
vt 0.687539 0.687375
vt 0.687491 0.499999
vt 0.687539 0.687375
vt 0.734608 0.687489
vt 0.734413 0.749971
vt 0.687445 0.750018
vn -0.5781 -0.5686 0.5853
vn -0.5903 -0.5721 -0.5694
vn 0.5642 -0.5861 -0.5815
vn 0.5764 -0.5825 0.5731
vn -0.5642 0.5861 0.5815
vn -0.5764 0.5825 -0.5731
vn 0.5903 0.5721 0.5694
vn 0.5781 0.5686 -0.5853
usemtl 材质
s 1
f 1/1/1 2/2/2 3/3/3 4/4/4
f 1/5/1 5/6/5 6/7/6 2/8/2
f 5/9/5 1/10/1 4/11/4 7/12/7
f 2/13/2 6/14/6 8/15/8 3/16/3
f 3/17/3 8/18/8 7/19/7 4/20/4
f 5/21/5 7/22/7 8/23/8 6/24/6
o Steve_Head
v -1.000000 8.474034 1.006573
v -1.000000 6.474077 0.993383
v -1.000000 6.474077 0.993383
v -1.000000 8.474034 1.006573
v 1.000000 8.474034 1.006573
v 0.999999 8.487225 -0.993383
v -1.000000 8.487224 -0.993383
v -1.000000 6.487268 -1.006573
v 1.000000 8.474034 1.006573
v 1.000000 6.487268 -1.006573
v 1.000000 6.474078 0.993383
v 1.000000 6.474078 0.993383
vt 0.374898 0.874822
vt 0.374900 0.750005
vt 0.374900 0.750005
vt 0.374898 0.874822
vt 0.125157 0.875128
vt 0.250319 0.875139
vt 0.251532 1.000103
vt 0.125022 1.000008
vt 0.499969 0.874979
vt 0.500024 0.753426
vt 0.125022 1.000008
vt 0.125157 0.875128
vt 0.250319 0.875139
vt 0.374898 0.874822
vt 0.374953 0.999903
vt 0.251532 1.000103
vt 1.000000 1.002168
vt 1.000000 0.502168
vt 1.000000 0.502168
vt 1.000000 1.002168
vt 0.125147 0.750051
vt 0.000138 0.874999
vt 0.000105 0.749929
vt 0.125147 0.750051
vt 0.250043 0.750354
vt 0.374900 0.750005
vt 0.374898 0.874822
vn -0.4074 0.4073 0.8174
vn -0.4091 -0.4091 0.8156
vn 0.0000 -0.0022 1.0000
vn 0.4074 0.4073 0.8174
vn 0.5774 0.5811 -0.5735
vn -0.5774 0.5811 -0.5735
vn -0.5774 -0.5735 -0.5811
vn 0.5774 -0.5735 -0.5811
vn 0.4091 -0.4091 0.8156
usemtl 材质
s 1
f 9/25/9 10/26/10 11/27/11 12/28/11
f 13/29/12 14/30/13 15/31/14 9/32/9
f 9/25/9 15/33/14 16/34/15 10/26/10
f 13/29/12 9/32/9 12/35/11 17/36/11
f 18/37/16 19/38/17 10/39/10 16/40/15
f 10/41/10 19/42/17 20/43/11 11/44/11
f 20/45/11 17/36/11 12/46/11 11/47/11
f 19/48/17 18/49/16 14/30/13 13/29/12
f 19/48/17 13/29/12 17/36/11 20/45/11
f 18/49/16 16/50/15 15/51/14 14/30/13
o Steve_RLeg
v -0.521593 3.497354 0.000451
v -0.521593 3.497354 1.136699
v 0.521593 3.497354 1.136699
v 0.521592 3.497354 0.000451
v -0.521593 0.502646 0.000451
v -0.521592 0.502646 1.136699
v 0.521593 0.502646 0.000451
v 0.521593 0.502646 1.136698
vt 0.374961 0.187975
vt 0.374976 0.249914
vt 0.312594 0.250155
vt 0.312519 0.187677
vt 0.500058 0.187572
vt 0.500011 0.000008
vt 0.439224 0.000010
vt 0.436690 0.187518
vt 0.250323 0.000433
vt 0.250120 0.187485
vt 0.312414 0.000117
vt 0.374910 0.187485
vt 0.375114 0.000433
vt 0.437204 0.000117
vt 0.437310 0.187677
vt 0.312519 0.187677
vt 0.312414 0.000117
vt 0.374916 0.001573
vt 0.374961 0.187975
vt 0.437496 0.249950
vt 0.374976 0.249914
vt 0.374961 0.187975
vt 0.438074 0.187518
vn -0.5774 0.5774 -0.5774
vn -0.5774 0.5774 0.5774
vn 0.5774 0.5774 0.5774
vn 0.5774 0.5774 -0.5774
vn -0.5774 -0.5774 -0.5774
vn -0.5773 -0.5774 0.5774
vn 0.5774 -0.5774 -0.5774
vn 0.5774 -0.5774 0.5773
usemtl 材质
s 1
f 21/52/18 22/53/19 23/54/20 24/55/21
f 21/56/18 25/57/22 26/58/23 22/59/19
f 25/60/22 21/61/18 24/55/21 27/62/24
f 22/63/19 26/64/23 28/65/25 23/66/20
f 23/67/20 28/68/25 27/69/24 24/70/21
f 25/71/22 27/72/24 28/73/25 26/74/23
o Steve_LArm
v -0.548908 6.485670 -2.237525
v -0.560913 6.489187 -1.101346
v 0.482139 6.501761 -1.090364
v 0.494144 6.498244 -2.226543
v -0.512911 3.491194 -2.227873
v -0.524916 3.494711 -1.091695
v 0.530140 3.503768 -2.216893
v 0.518135 3.507285 -1.080714
vt 0.562573 0.249950
vt 0.562720 0.187513
vt 0.609647 0.187544
vt 0.609770 0.250025
vt 0.672784 0.187513
vt 0.672805 -0.000010
vt 0.718658 0.000039
vt 0.718790 0.187544
vt 0.609880 -0.000010
vt 0.609859 0.187513
vt 0.656786 0.187544
vt 0.656654 0.000039
vt 0.562741 -0.000010
vt 0.609515 0.000039
vt 0.562720 0.187513
vt 0.562741 -0.000010
vt 0.609515 0.000039
vt 0.609647 0.187544
vt 0.656384 0.249911
vt 0.609770 0.250025
vt 0.609647 0.187544
vt 0.656279 0.187847
vn -0.5781 0.5686 -0.5853
vn -0.5903 0.5721 0.5694
vn 0.5642 0.5861 0.5815
vn 0.5764 0.5825 -0.5731
vn -0.5642 -0.5861 -0.5815
vn -0.5764 -0.5825 0.5731
vn 0.5903 -0.5721 -0.5694
vn 0.5781 -0.5686 0.5853
usemtl 材质
s 1
f 29/75/26 30/76/27 31/77/28 32/78/29
f 29/79/26 33/80/30 34/81/31 30/82/27
f 33/83/30 29/84/26 32/85/29 35/86/32
f 30/76/27 34/87/31 36/88/33 31/77/28
f 31/89/28 36/90/33 35/91/32 32/92/29
f 33/93/30 35/94/32 36/95/33 34/96/31
o Steve_Body
v -0.521593 6.486256 -1.131610
v -0.521593 6.486256 1.163829
v 0.521593 6.486256 1.163828
v 0.521592 6.486256 -1.131611
v -0.521593 3.491547 -1.131610
v -0.521592 3.491547 1.163829
v 0.521593 3.491547 -1.131610
v 0.521593 3.491547 1.163828
vt 0.437573 0.750241
vt 0.312583 0.749964
vt 0.312728 0.687624
vt 0.437586 0.687728
vt 0.625712 0.687668
vt 0.625013 0.500159
vt 0.500012 0.500084
vt 0.500155 0.687369
vt 0.500012 0.500084
vt 0.500155 0.687369
vt 0.437666 0.500141
vt 0.312728 0.687624
vt 0.312780 0.500257
vt 0.249632 0.500913
vt 0.249632 0.688850
vt 0.312780 0.500257
vt 0.187577 0.750079
vt 0.125045 0.749986
vt 0.125028 0.688002
vt 0.187580 0.687797
vn -0.5774 0.5774 -0.5774
vn -0.5774 0.5774 0.5774
vn 0.5774 0.5774 0.5773
vn 0.5774 0.5774 -0.5774
vn -0.5774 -0.5774 -0.5774
vn -0.5773 -0.5774 0.5774
vn 0.5774 -0.5774 -0.5774
vn 0.5774 -0.5774 0.5773
usemtl 材质
s 1
f 37/97/34 38/98/35 39/99/36 40/100/37
f 37/101/34 41/102/38 42/103/39 38/104/35
f 41/105/38 37/106/34 40/100/37 43/107/40
f 38/108/35 42/109/39 44/110/41 39/111/36
f 39/99/36 44/112/41 43/107/40 40/100/37
f 41/113/38 43/114/40 44/115/41 42/116/39
o Steve_LLeg
v -0.521593 3.497354 -1.138887
v -0.521593 3.497354 -0.002640
v 0.521593 3.497354 -0.002640
v 0.521592 3.497354 -1.138888
v -0.521593 0.502646 -1.138887
v -0.521592 0.502646 -0.002639
v 0.521593 0.502646 -1.138887
v 0.521593 0.502646 -0.002640
vt 0.122711 0.690925
vt 0.122790 0.745637
vt 0.062175 0.747141
vt 0.062097 0.692429
vt 0.250211 0.688755
vt 0.250211 0.502853
vt 0.187955 0.501511
vt 0.187955 0.687413
vt 0.062122 0.502203
vt 0.062121 0.687560
vt 0.000497 0.687560
vt 0.000497 0.502203
vt -0.003674 0.686238
vt 0.003760 0.501030
vt 0.065964 0.500904
vt 0.058530 0.686111
vt 0.068050 0.684788
vt 0.068050 0.504135
vt 0.122484 0.504135
vt 0.122484 0.684788
vt 0.185797 0.750211
vt 0.129150 0.750211
vt 0.130335 0.694470
vt 0.186982 0.694470
vn -0.5774 0.5774 -0.5773
vn -0.5774 0.5774 0.5774
vn 0.5774 0.5774 0.5774
vn 0.5773 0.5774 -0.5774
vn -0.5774 -0.5774 -0.5774
vn -0.5773 -0.5774 0.5774
vn 0.5774 -0.5774 -0.5774
vn 0.5774 -0.5774 0.5773
usemtl 材质
s 1
f 45/117/42 46/118/43 47/119/44 48/120/45
f 45/121/42 49/122/46 50/123/47 46/124/43
f 49/125/46 45/126/42 48/127/45 51/128/48
f 46/129/43 50/130/47 52/131/49 47/132/44
f 47/133/44 52/134/49 51/135/48 48/136/45
f 49/137/46 51/138/48 52/139/49 50/140/47
